<?xml version="1.0" standalone="no"?>
<!DOCTYPE svg PUBLIC "-//W3C//DTD SVG 20010904//EN"
 "http://www.w3.org/TR/2001/REC-SVG-20010904/DTD/svg10.dtd">
<svg version="1.0" xmlns="http://www.w3.org/2000/svg"
 width="1800.000000pt" height="1800.000000pt" viewBox="0 0 1800.000000 1800.000000"
 preserveAspectRatio="xMidYMid meet">
<metadata>
Created by potrace 1.11, written by Peter Selinger 2001-2013
</metadata>
<g transform="translate(0.000000,1800.000000) scale(0.100000,-0.100000)"
fill="#000000" stroke="none">
<path d="M1248 14266 c-109 -23 -238 -143 -270 -249 -19 -62 -19 -7852 0
-7914 33 -109 161 -226 275 -250 50 -10 696 -13 3438 -13 3534 0 3415 1 3389
-40 -5 -8 -6 -19 -2 -25 4 -5 8 -26 9 -45 7 -142 11 -202 16 -207 4 -3 2 -14
-3 -24 -7 -12 -7 -20 0 -24 5 -3 10 -11 10 -16 0 -6 -5 -7 -12 -3 -7 5 -8 3
-2 -7 5 -8 9 -35 9 -60 1 -25 5 -51 9 -57 4 -7 2 -12 -5 -12 -7 0 -8 -4 -2
-12 5 -7 9 -39 8 -71 0 -32 3 -61 8 -64 4 -2 3 -11 -3 -18 -8 -10 -8 -15 0
-20 8 -5 7 -11 -2 -23 -8 -9 -8 -13 -1 -9 7 5 9 0 6 -13 -3 -11 -10 -17 -17
-14 -6 3 -3 -1 7 -9 12 -10 14 -16 6 -19 -7 -2 -12 -20 -11 -43 1 -21 -3 -44
-9 -52 -8 -9 -8 -17 0 -27 9 -10 8 -15 -3 -19 -9 -4 -13 -15 -11 -27 2 -11 -1
-20 -6 -20 -6 0 -7 -5 -3 -12 13 -21 12 -69 -1 -64 -8 3 -11 -10 -10 -40 1
-25 -2 -47 -6 -50 -5 -3 -9 -10 -9 -15 0 -6 4 -8 9 -5 5 4 4 -5 -2 -18 -7 -13
-16 -22 -22 -19 -5 3 -5 0 2 -7 12 -13 6 -43 -7 -35 -5 3 -9 -3 -9 -12 -1 -46
-5 -54 -20 -48 -11 4 -10 0 5 -16 10 -12 15 -20 9 -17 -5 3 -16 0 -23 -8 -11
-12 -10 -14 5 -15 14 0 13 -2 -5 -9 -12 -5 -22 -12 -22 -15 0 -4 4 -4 9 -1 5
4 4 -5 -2 -19 -7 -14 -17 -23 -24 -21 -8 3 -10 -1 -6 -11 4 -10 2 -14 -4 -10
-5 3 -10 0 -10 -8 0 -30 -36 -83 -52 -77 -14 5 -14 4 -1 -13 12 -15 12 -17 1
-10 -11 6 -13 4 -7 -10 5 -15 4 -16 -9 -5 -13 11 -14 10 -9 -6 4 -10 3 -16 -1
-11 -5 4 -15 -5 -22 -20 -12 -26 -12 -26 -7 -3 4 19 3 22 -5 10 -6 -8 -11 -22
-11 -30 0 -8 -15 -32 -33 -52 l-34 -38 -546 0 c-332 0 -547 -4 -547 -9 0 -5
-9 -12 -20 -16 -24 -8 -112 -94 -106 -104 3 -4 -6 -20 -19 -35 -14 -16 -22
-32 -20 -37 3 -4 1 -10 -5 -14 -6 -4 -8 -11 -5 -16 4 -5 1 -9 -4 -9 -7 0 -11
-27 -11 -70 0 -38 4 -70 10 -70 5 0 7 -7 4 -15 -4 -8 -1 -15 5 -15 6 0 11 -8
11 -18 0 -11 9 -27 20 -37 10 -9 18 -20 17 -24 -3 -11 28 -51 40 -51 6 0 15
-9 18 -21 4 -11 20 -25 36 -31 16 -5 29 -14 29 -19 0 -5 992 -9 2430 -9 1613
0 2430 3 2430 10 0 6 7 10 15 10 8 0 15 5 15 12 0 6 3 9 6 5 8 -7 34 17 34 32
0 6 6 11 13 11 12 0 80 100 75 110 -1 3 5 16 15 30 19 27 25 160 7 160 -5 0
-7 7 -4 15 4 8 1 15 -6 15 -6 0 -10 6 -8 12 3 7 -6 24 -18 37 -13 14 -21 28
-19 32 3 4 -15 27 -40 52 -25 26 -45 43 -45 39 0 -4 -7 2 -15 12 -8 11 -15 16
-15 10 0 -5 -4 -3 -8 3 -6 10 -123 13 -510 13 -442 1 -500 2 -495 16 3 8 2 14
-3 13 -23 -4 -34 3 -34 22 0 17 -3 19 -13 10 -18 -14 -30 -2 -15 16 9 11 8 13
-3 11 -8 -2 -13 3 -11 11 3 12 0 12 -12 2 -11 -9 -16 -9 -22 0 -4 8 -3 9 4 5
7 -4 12 -4 12 1 0 4 -14 16 -31 26 -23 13 -30 22 -26 38 4 16 3 18 -9 8 -11
-9 -14 -8 -14 5 0 19 -24 48 -34 41 -3 -3 -2 0 4 7 6 8 3 17 -12 30 -14 12
-17 18 -7 18 8 1 4 6 -9 13 -12 7 -20 16 -17 19 3 3 -5 18 -19 33 -19 21 -23
31 -16 41 8 8 8 14 0 19 -6 3 -8 11 -5 16 4 5 2 9 -4 9 -5 0 -8 11 -7 24 2 18
-1 23 -12 18 -11 -4 -14 -1 -9 10 3 9 3 19 -1 22 -3 4 -7 17 -9 29 -2 12 -8
24 -14 26 -5 1 -2 9 8 17 17 13 17 14 1 8 -18 -6 -24 9 -18 45 1 8 -3 17 -9
20 -6 4 -13 34 -15 66 -3 33 -6 60 -6 60 -2 0 -7 82 -11 192 -1 35 -7 59 -12
56 -5 -3 -4 4 3 16 8 17 8 26 0 36 -8 9 -8 15 0 20 6 3 8 11 4 16 -8 14 -13
119 -4 119 11 0 8 30 -4 30 -6 0 -3 5 7 11 12 7 15 15 8 27 -5 9 -5 25 0 40 6
15 5 21 -1 17 -6 -3 -10 -2 -10 4 0 5 5 11 10 13 12 4 13 22 7 81 -3 24 0 40
8 43 7 3 11 23 10 50 -2 35 1 44 12 40 9 -4 11 -2 6 7 -4 6 -8 28 -8 48 -1 29
2 36 15 31 13 -5 13 -3 2 11 -8 9 -11 21 -7 27 4 7 1007 10 3248 10 2632 0
3254 3 3304 13 114 24 242 141 275 250 19 62 19 7852 0 7914 -33 109 -161 226
-275 250 -89 18 -15372 18 -15459 -1z"/>
<path d="M10220 4496 c0 -2 8 -10 18 -17 15 -13 16 -12 3 4 -13 16 -21 21 -21
13z"/>
<path d="M7900 4350 c-9 -6 -10 -10 -3 -10 6 0 15 5 18 10 8 12 4 12 -15 0z"/>
<path d="M7776 4184 c-5 -14 -4 -15 9 -4 17 14 19 20 6 20 -5 0 -12 -7 -15
-16z"/>
</g>
</svg>
